<?xml version="1.0" standalone="no"?>
<!DOCTYPE svg PUBLIC "-//W3C//DTD SVG 20010904//EN"
 "http://www.w3.org/TR/2001/REC-SVG-20010904/DTD/svg10.dtd">
<svg version="1.0" xmlns="http://www.w3.org/2000/svg"
 width="512.000000pt" height="512.000000pt" viewBox="0 0 512.000000 512.000000"
 preserveAspectRatio="xMidYMid meet">

<g transform="translate(0.000000,512.000000) scale(0.100000,-0.100000)"
fill="#000000" stroke="none">
<path d="M3073 3719 c-8 -8 -2 -33 23 -92 19 -45 34 -84 34 -88 0 -6 -1196
-21 -1895 -24 -405 -1 -445 -4 -525 -45 -22 -11 -52 -20 -67 -20 -15 0 -71 -7
-123 -14 -91 -14 -96 -16 -131 -55 -121 -136 -171 -373 -171 -821 0 -448 50
-685 171 -821 35 -39 40 -41 131 -55 52 -7 108 -14 123 -14 15 0 45 -9 67 -20
79 -40 120 -44 530 -45 719 -3 1890 -18 1890 -24 0 -4 -15 -43 -34 -88 -25
-59 -31 -84 -23 -92 35 -35 118 19 187 121 l45 66 142 7 c87 4 203 2 300 -5
114 -8 213 -9 356 -2 184 9 201 12 235 34 20 14 64 37 97 52 177 80 282 176
360 327 26 52 58 105 71 119 22 24 23 34 28 210 7 228 7 232 0 460 -5 176 -6
186 -28 210 -13 14 -45 67 -71 119 -78 151 -183 247 -360 327 -33 15 -77 38
-97 52 -34 22 -51 25 -235 34 -143 7 -242 6 -356 -2 -96 -7 -213 -9 -300 -5
l-143 7 -39 60 c-64 99 -158 161 -192 127z m137 -284 c0 -8 -10 -21 -22 -29
-28 -18 -437 -77 -728 -106 -185 -18 -523 -31 -533 -21 -11 11 29 85 65 118
24 22 29 23 443 46 28 2 213 4 413 5 313 2 362 0 362 -13z m1258 -31 c58 -28
94 -54 147 -108 69 -71 164 -196 148 -196 -5 0 -37 37 -73 81 -89 111 -144
159 -247 213 -105 54 -86 62 25 10z m-2614 -26 c-27 -88 -31 -93 -65 -100 -19
-4 -218 -21 -442 -39 l-408 -32 -70 28 c-38 16 -66 32 -62 36 16 15 879 125
1006 128 46 1 48 0 41 -21z m1696 -73 c44 -23 67 -63 109 -192 52 -155 65
-265 65 -553 0 -288 -13 -398 -65 -554 -67 -202 -87 -216 -278 -197 -141 14
-423 66 -451 84 -39 24 -41 48 -10 199 30 141 30 147 30 468 0 321 0 327 -30
468 -30 150 -29 175 9 199 23 14 253 61 385 78 139 18 202 18 236 0z m-2997
-191 c43 -14 77 -29 75 -32 -2 -4 -20 -32 -41 -62 -57 -86 -77 -154 -89 -316
-9 -107 -9 -181 0 -288 12 -162 32 -230 89 -316 21 -30 39 -58 41 -62 2 -4
-34 -18 -79 -33 -80 -25 -82 -25 -118 -8 -97 48 -120 158 -120 563 0 328 13
438 62 511 18 28 76 69 97 69 3 0 40 -12 83 -26z m2000 -75 c46 -35 50 -75 50
-479 0 -404 -4 -444 -50 -479 -24 -20 -39 -21 -223 -21 -226 0 -239 4 -261 83
-16 58 -16 776 0 834 22 79 35 83 261 83 184 0 199 -1 223 -21z m-1839 -28 c3
-5 -3 -35 -14 -67 -35 -100 -50 -217 -50 -384 0 -167 15 -284 50 -384 19 -56
19 -76 0 -76 -21 0 -60 108 -70 195 -13 116 -13 414 0 530 13 116 62 223 84
186z m4014 -1053 c-76 -110 -174 -201 -260 -242 -111 -52 -130 -44 -25 10 103
54 158 102 247 213 36 44 68 81 73 81 5 0 -11 -28 -35 -62z m-3325 -82 c225
-19 412 -38 417 -42 12 -14 41 -107 35 -113 -14 -14 -1030 110 -1048 128 -11
11 112 60 153 60 19 0 219 -15 443 -33z m762 -36 c232 -12 459 -35 785 -81
213 -30 260 -44 260 -75 0 -15 -41 -16 -442 -11 -244 3 -513 11 -598 17 -173
14 -179 16 -227 97 -24 42 -24 63 1 63 6 0 106 -5 221 -10z"/>
</g>
</svg>
