<?xml version="1.0" standalone="no"?>
<!DOCTYPE svg PUBLIC "-//W3C//DTD SVG 20010904//EN"
 "http://www.w3.org/TR/2001/REC-SVG-20010904/DTD/svg10.dtd">
<svg version="1.0" xmlns="http://www.w3.org/2000/svg"
 width="728.000000pt" height="1020.000000pt" viewBox="0 0 728.000000 1020.000000"
 preserveAspectRatio="xMidYMid meet">

<g transform="translate(0.000000,1020.000000) scale(0.100000,-0.100000)"
fill="#000000" stroke="none">
<path d="M3525 9899 c-270 -42 -492 -207 -612 -454 -55 -115 -67 -185 -61
-385 4 -144 7 -160 35 -233 69 -173 197 -331 333 -410 91 -53 213 -98 291
-108 83 -10 321 5 374 24 212 77 392 233 488 424 50 97 57 143 57 347 -1 219
-10 259 -90 400 -136 239 -378 386 -658 400 -53 3 -124 1 -157 -5z"/>
<path d="M2995 8140 c-170 -4 -345 -13 -388 -19 -325 -46 -641 -307 -767 -632
-45 -118 -49 -148 -60 -447 -12 -357 -13 -1962 0 -2285 9 -243 10 -250 37
-299 53 -98 157 -158 285 -166 93 -5 159 13 237 66 44 29 62 51 90 106 l36 69
3 1173 3 1174 79 0 80 0 1 -2837 c0 -1561 4 -2978 8 -3148 7 -299 8 -312 31
-360 35 -73 124 -156 217 -202 76 -38 79 -38 193 -37 185 1 284 42 380 156 77
92 82 107 91 253 4 72 9 910 11 1862 l3 1733 77 0 77 0 4 -1797 c4 -1540 6
-1810 19 -1883 19 -105 33 -133 95 -192 105 -97 187 -129 336 -130 123 0 169
8 242 43 73 36 178 134 194 180 6 19 15 66 21 104 20 133 29 1237 29 3743 l1
2512 75 0 75 0 0 -117 c0 -65 3 -604 6 -1198 l6 -1080 42 -55 c78 -102 174
-145 312 -138 142 7 257 83 305 204 l24 59 0 1330 c0 1452 3 1382 -60 1566
-54 159 -129 272 -267 405 -126 120 -224 180 -387 234 -77 26 -113 32 -258 40
-236 13 -1167 20 -1538 10z"/>
</g>
</svg>
